<svg width="99" height="99" viewBox="0 0 99 99" fill="none" xmlns="http://www.w3.org/2000/svg">
<path d="M43.1793 8.45937C43.6347 8.67923 44.2786 8.83104 44.9329 8.76299C45.9065 8.66353 46.4195 8.0877 46.3462 7.34436C46.2729 6.65338 45.8385 6.30265 44.8073 6.0252C43.5615 5.72159 42.7501 5.17717 42.6454 4.14068C42.525 2.99427 43.3887 2.04154 44.823 1.89497C45.5767 1.81645 46.1421 1.93685 46.4875 2.08865L46.3043 2.89481C46.0478 2.79011 45.5349 2.6226 44.8701 2.69065C43.8651 2.79535 43.5458 3.43399 43.5981 3.93653C43.6714 4.62752 44.153 4.91543 45.2103 5.20858C46.5085 5.55931 47.2047 6.09849 47.3146 7.17685C47.435 8.3128 46.6917 9.38593 44.9538 9.56391C44.2419 9.6372 43.4463 9.51156 43.0223 9.28647L43.1793 8.46461V8.45937Z" fill="#5D624C"/>
<path d="M53.5174 6.59583C53.4546 8.56411 52.0622 9.3755 50.7745 9.33362C49.3351 9.2865 48.2568 8.19244 48.3143 6.51208C48.3719 4.73225 49.5706 3.72718 51.0467 3.77429C52.5752 3.82664 53.5698 4.96782 53.5174 6.59583ZM49.2984 6.51208C49.2618 7.67943 49.9004 8.57981 50.8478 8.61122C51.7691 8.64263 52.4915 7.79459 52.5333 6.59583C52.5647 5.69545 52.1512 4.53857 51.0049 4.50192C49.8585 4.46528 49.3351 5.50176 49.2984 6.51731V6.51208Z" fill="#5D624C"/>
<path d="M54.4858 9.44876L55.271 4.93115L54.5329 4.80552L54.6586 4.07789L55.3966 4.20352L55.4437 3.92084C55.6845 2.53363 56.6529 1.77459 58.1238 2.03109C58.6106 2.11485 59.1602 2.36611 59.3958 2.60691L58.998 3.28743C58.799 3.08328 58.4117 2.87389 57.9458 2.79537C56.9408 2.62262 56.522 3.27173 56.3807 4.10929L56.3336 4.37103L59.3748 4.89974L58.464 10.1398L57.5218 9.97747L58.307 5.45987L56.208 5.09343L55.4228 9.61104L54.4806 9.44876H54.4858Z" fill="#5D624C"/>
<path d="M61.0447 8.26046C60.673 9.5168 61.3064 10.2811 62.2277 10.569C62.8872 10.7784 63.3217 10.7889 63.7143 10.7522L63.6619 11.4641C63.2903 11.506 62.6831 11.5008 61.877 11.2443C60.3171 10.7522 59.7046 9.42781 60.1915 7.89926C60.673 6.37071 61.9555 5.44939 63.4316 5.91528C65.0857 6.43876 65.07 8.03536 64.7716 8.96715C64.7141 9.1556 64.646 9.29694 64.6041 9.38593L61.0394 8.26046H61.0447ZM63.9603 8.45414C64.154 7.87309 64.1906 6.87848 63.1542 6.55392C62.2224 6.26078 61.542 6.98841 61.2645 7.60611L63.9603 8.45414Z" fill="#5D624C"/>
<path d="M71.299 7.01459L69.781 9.71573L72.9008 11.4746L74.4188 8.77347L75.2615 9.24983L71.6288 15.7043L70.786 15.2279L72.4872 12.2022L69.3675 10.4434L67.6663 13.4691L66.834 12.9979L70.4667 6.54346L71.299 7.01459Z" fill="#5D624C"/>
<path d="M74.6753 14.872C73.8902 15.9189 74.2147 16.856 74.9789 17.4475C75.5233 17.8715 75.9264 18.0338 76.3085 18.1385L76.0154 18.7876C75.6542 18.6986 75.0836 18.4787 74.4188 17.9605C73.1259 16.9554 73.016 15.5054 74.0053 14.2386C74.9894 12.9718 76.5126 12.5582 77.7375 13.5109C79.1089 14.5788 78.5332 16.0655 77.9312 16.8403C77.8108 16.9973 77.6956 17.102 77.6276 17.1753L74.6806 14.8772L74.6753 14.872ZM77.3397 16.0655C77.727 15.5891 78.1092 14.6731 77.2507 14.003C76.4812 13.401 75.5861 13.8512 75.115 14.3276L77.3397 16.0655Z" fill="#5D624C"/>
<path d="M78.9676 18.4421C78.0516 19.3791 78.2558 20.3528 78.9362 21.0385C79.423 21.5306 79.7999 21.7452 80.1663 21.897L79.7895 22.499C79.4387 22.3629 78.9048 22.075 78.3133 21.473C77.1617 20.3057 77.2403 18.8504 78.3866 17.7249C79.5277 16.5994 81.0928 16.3796 82.1816 17.4841C83.4013 18.7195 82.637 20.1224 81.9408 20.8082C81.7995 20.9495 81.6739 21.0385 81.5954 21.1013L78.9676 18.4421ZM81.454 19.9759C81.899 19.5519 82.3962 18.6934 81.632 17.9186C80.9463 17.2224 80.0041 17.5522 79.4702 17.9657L81.454 19.9759Z" fill="#5D624C"/>
<path d="M81.1556 22.9388C81.1818 23.279 81.3388 23.7973 81.6372 24.1794C82.0716 24.7343 82.548 24.7762 82.8987 24.5092C83.2651 24.2265 83.2913 23.8549 83.0609 23.1272C82.7416 22.164 82.883 21.4835 83.3855 21.0909C84.0607 20.5622 85.0396 20.6774 85.7462 21.5777C86.076 22.0018 86.2488 22.4677 86.2906 22.8131L85.5892 23.0539C85.563 22.8079 85.4688 22.3944 85.1652 22.007C84.8145 21.5568 84.3591 21.5097 84.045 21.7505C83.6995 22.0227 83.7362 22.3944 83.956 23.1011C84.2439 24.0433 84.1707 24.7029 83.5478 25.1897C82.8097 25.7656 81.8465 25.598 81.0666 24.6034C80.7107 24.1428 80.4908 23.6298 80.4332 23.2005L81.1608 22.9388H81.1556Z" fill="#5D624C"/>
<path d="M85.1129 30.079C84.8669 29.9324 84.4219 29.5503 84.0503 28.9431C83.2075 27.5768 83.5844 26.1163 84.9663 25.263C86.3587 24.4045 87.9604 24.7343 88.8712 26.2105C89.1696 26.6973 89.3162 27.1999 89.3423 27.4983L88.5886 27.7024C88.5781 27.4354 88.4891 27.0638 88.2169 26.6136C87.5783 25.5771 86.4634 25.4881 85.5159 26.0692C84.469 26.7183 84.2387 27.7862 84.7936 28.6866C85.0815 29.1524 85.3955 29.388 85.6416 29.5555L85.1129 30.079Z" fill="#5D624C"/>
<path d="M92.4935 27.7809L92.8913 28.6656L89.8606 30.0214L89.871 30.0424C90.1851 30.0685 90.5044 30.1942 90.7766 30.3931C91.0436 30.5868 91.2843 30.8537 91.4309 31.1835C91.724 31.8379 91.7921 33.0576 90.1118 33.8114L87.2224 35.1044L86.8246 34.2197L89.6145 32.9686C90.3997 32.6179 90.9284 32.0316 90.5568 31.1992C90.3003 30.6286 89.6983 30.3564 89.1434 30.4088C89.0021 30.4088 88.866 30.4611 88.6933 30.5397L85.762 31.8536L85.3641 30.9689L92.4883 27.7757L92.4935 27.7809Z" fill="#5D624C"/>
<path d="M90.1904 36.1618C88.9393 36.5492 88.6566 37.5019 88.9288 38.4284C89.1225 39.0933 89.3581 39.4597 89.6041 39.7633L88.9864 40.114C88.7456 39.8314 88.4106 39.3183 88.1751 38.507C87.7144 36.9365 88.4787 35.6959 90.0176 35.2457C91.5566 34.7955 93.0379 35.3504 93.4671 36.8371C93.954 38.5017 92.6139 39.3759 91.677 39.6481C91.4885 39.7057 91.3315 39.7267 91.2373 39.7424L90.1904 36.1565V36.1618ZM91.6508 38.6902C92.2423 38.5279 93.0903 38.0097 92.7867 36.9627C92.5145 36.0257 91.5252 35.8634 90.8604 35.9786L91.6508 38.6902Z" fill="#5D624C"/>
<path d="M90.5725 43.3962C90.3527 43.8464 90.1956 44.4956 90.2584 45.1499C90.3526 46.1236 90.9232 46.6418 91.6665 46.5685C92.3575 46.5005 92.7134 46.066 92.9961 45.0347C93.3049 43.7889 93.8545 42.9827 94.8962 42.8832C96.0425 42.7681 96.99 43.637 97.1313 45.0714C97.2046 45.8252 97.0842 46.3905 96.9324 46.736L96.1315 46.5476C96.2415 46.2963 96.409 45.7781 96.3461 45.1133C96.2467 44.1082 95.6081 43.7836 95.1056 43.8307C94.4146 43.8988 94.1215 44.3804 93.8284 45.4378C93.4672 46.7308 92.928 47.427 91.8497 47.5317C90.7138 47.6417 89.646 46.8983 89.4733 45.1604C89.4052 44.4484 89.5361 43.6528 89.7559 43.234L90.5777 43.3962H90.5725Z" fill="#5D624C"/>
<path d="M92.3783 53.7454C90.4101 53.6721 89.6093 52.2744 89.6564 50.9919C89.7087 49.5523 90.808 48.4844 92.4882 48.5473C94.268 48.6153 95.2678 49.8193 95.2102 51.2903C95.1526 52.8188 94.0062 53.8082 92.3783 53.7454ZM92.483 49.5209C91.3209 49.479 90.4154 50.1124 90.3787 51.0599C90.3421 51.9813 91.1849 52.7089 92.3836 52.7508C93.2839 52.7822 94.4459 52.3791 94.4878 51.2327C94.5297 50.0915 93.4933 49.5576 92.483 49.5209Z" fill="#5D624C"/>
<path d="M89.5204 54.6929L94.0325 55.499L94.1634 54.7609L94.891 54.8918L94.7601 55.6299L95.0428 55.6822C96.4299 55.9283 97.1837 56.9019 96.9167 58.3729C96.8277 58.8597 96.5765 59.4042 96.3304 59.645L95.6552 59.2471C95.8593 59.0482 96.0739 58.6608 96.1577 58.1949C96.3357 57.1899 95.6866 56.7711 94.8543 56.6193L94.5926 56.5722L94.0482 59.6136L88.8085 58.6765L88.976 57.7343L93.4881 58.5404L93.865 56.4413L89.3529 55.6351L89.5204 54.6929Z" fill="#5D624C"/>
<path d="M90.672 61.273C89.4209 60.8961 88.6515 61.5243 88.3583 62.4456C88.1489 63.1052 88.1332 63.5396 88.1699 63.9322L87.458 63.8799C87.4161 63.5082 87.4266 62.901 87.6831 62.0948C88.1856 60.5349 89.5099 59.9329 91.0384 60.425C92.5669 60.917 93.4829 62.2048 93.0066 63.6757C92.4726 65.3299 90.8813 65.2985 89.9496 65.0001C89.7612 64.9373 89.6198 64.8693 89.5308 64.8326L90.672 61.273ZM90.4626 64.1835C91.0436 64.3824 92.0382 64.4243 92.368 63.3878C92.6663 62.456 91.9387 61.7755 91.3263 61.4928L90.4626 64.1835Z" fill="#5D624C"/>
<path d="M91.8707 71.5279L89.1749 69.9941L87.4004 73.1088L90.0962 74.6426L89.6198 75.4854L83.1814 71.8211L83.6577 70.9783L86.678 72.6953L88.4525 69.5806L85.4322 67.8636L85.9033 67.0312L92.3418 70.6956L91.8707 71.5279Z" fill="#5D624C"/>
<path d="M83.9927 74.8625C82.951 74.072 82.0088 74.3914 81.4121 75.1504C80.9828 75.6948 80.8206 76.0979 80.7159 76.48L80.072 76.1816C80.161 75.8204 80.3861 75.2499 80.9095 74.585C81.925 73.2973 83.375 73.1978 84.6365 74.1924C85.898 75.187 86.3063 76.7104 85.3432 77.9301C84.2701 79.2963 82.7835 78.71 82.014 78.1028C81.857 77.9824 81.7523 77.8672 81.679 77.7992L83.9927 74.8625ZM82.7835 77.5217C83.2598 77.9091 84.1759 78.2965 84.8459 77.4432C85.4531 76.6737 85.0082 75.7786 84.5318 75.3022L82.7835 77.5217Z" fill="#5D624C"/>
<path d="M80.3966 79.134C79.4648 78.2127 78.4912 78.4116 77.8003 79.0869C77.303 79.5685 77.0884 79.9506 76.9366 80.3118L76.3346 79.9297C76.4707 79.579 76.7638 79.0503 77.371 78.4587C78.5435 77.3123 79.9935 77.4013 81.1189 78.553C82.2391 79.6994 82.4432 81.2646 81.3388 82.3482C80.0982 83.5626 78.7006 82.7879 78.0149 82.0917C77.8788 81.9503 77.7845 81.8247 77.7217 81.7462L80.3966 79.134ZM78.8524 81.6101C79.2764 82.0602 80.1296 82.5576 80.9095 81.7985C81.611 81.1128 81.2864 80.1705 80.8729 79.6366L78.8524 81.6101Z" fill="#5D624C"/>
<path d="M75.8897 81.3012C75.5495 81.3274 75.0261 81.4792 74.6439 81.7776C74.0891 82.2069 74.042 82.6885 74.3089 83.0339C74.5916 83.4004 74.9632 83.4318 75.6908 83.2067C76.6592 82.8926 77.3345 83.034 77.7271 83.5417C78.2505 84.2222 78.1301 85.2011 77.2245 85.8974C76.8005 86.2272 76.3294 86.3947 75.9892 86.4366L75.7484 85.7299C75.9944 85.7089 76.408 85.6095 76.8005 85.3111C77.2507 84.9603 77.3031 84.5049 77.0623 84.1908C76.7953 83.8401 76.4184 83.882 75.7118 84.0966C74.7643 84.3845 74.11 84.306 73.6232 83.6778C73.0526 82.9397 73.2254 81.9713 74.2252 81.2018C74.6858 80.8458 75.1988 80.6312 75.6333 80.5736L75.8897 81.3065V81.3012Z" fill="#5D624C"/>
<path d="M68.7341 85.2221C68.8807 84.9761 69.2681 84.5364 69.8805 84.1647C71.2519 83.3324 72.7071 83.7145 73.5551 85.1069C74.4083 86.5046 74.0681 88.1012 72.5867 89.0069C72.0999 89.3052 71.5922 89.4466 71.299 89.4675L71.1001 88.7137C71.3671 88.7085 71.7387 88.6195 72.1889 88.3473C73.2306 87.7139 73.3248 86.5989 72.749 85.6514C72.1104 84.5992 71.0373 84.3636 70.137 84.9133C69.6659 85.2012 69.4303 85.51 69.2628 85.7561L68.7446 85.2221H68.7341Z" fill="#5D624C"/>
<path d="M71.006 92.6083L70.1213 93.0009L68.7761 89.9648L68.7551 89.9752C68.7237 90.2893 68.6033 90.6086 68.3992 90.8808C68.2055 91.1478 67.9385 91.3834 67.6035 91.5352C66.9492 91.8231 65.7244 91.8859 64.9811 90.2056L63.6986 87.3107L64.5832 86.9181L65.8186 89.7135C66.1641 90.4987 66.7503 91.0327 67.5878 90.661C68.1636 90.4097 68.4358 89.8025 68.3835 89.2528C68.3835 89.1115 68.3311 88.9754 68.2578 88.8026L66.9597 85.8659L67.8443 85.4733L71.0007 92.6136L71.006 92.6083Z" fill="#5D624C"/>
<path d="M62.6203 90.2685C62.2381 89.0173 61.2907 88.7294 60.359 88.9964C59.6942 89.1849 59.3225 89.4152 59.0189 89.6664L58.6682 89.0435C58.9509 88.8027 59.4639 88.4729 60.2804 88.2426C61.856 87.7924 63.0914 88.5619 63.5311 90.1009C63.9708 91.6452 63.4107 93.1214 61.9188 93.5454C60.249 94.0218 59.3853 92.6817 59.1184 91.7394C59.066 91.551 59.0451 91.3939 59.0242 91.2945L62.615 90.2685H62.6203ZM60.0815 91.7132C60.2386 92.31 60.7568 93.1528 61.8037 92.8544C62.7459 92.5875 62.9082 91.6033 62.7982 90.9333L60.0815 91.708V91.7132Z" fill="#5D624C"/>
<path d="M55.3758 90.6086C54.9256 90.3835 54.2818 90.2265 53.6222 90.2841C52.6486 90.3731 52.1252 90.9436 52.1984 91.687C52.2613 92.378 52.6905 92.7339 53.7217 93.0219C54.9675 93.3359 55.7684 93.8908 55.8626 94.9326C55.9673 96.079 55.0983 97.0212 53.6641 97.1573C52.9103 97.2254 52.345 97.105 51.9995 96.9479L52.188 96.147C52.4392 96.2569 52.9522 96.4297 53.6222 96.3669C54.6272 96.2726 54.957 95.634 54.9099 95.1315C54.8471 94.4405 54.3655 94.1421 53.3134 93.8437C52.0205 93.4773 51.3295 92.9329 51.2301 91.8493C51.1254 90.7133 51.8739 89.6507 53.617 89.4884C54.3289 89.4203 55.1245 89.5564 55.5433 89.7868L55.3758 90.6086Z" fill="#5D624C"/>
<path d="M45.0324 92.3624C45.1161 90.3941 46.5138 89.5984 47.8014 89.656C49.2409 89.7188 50.3035 90.8181 50.2302 92.4985C50.1517 94.2783 48.9426 95.2729 47.4717 95.2101C45.9432 95.1473 44.9591 93.9904 45.0324 92.3676V92.3624ZM49.2514 92.488C49.3037 91.3259 48.6704 90.415 47.7229 90.3784C46.8017 90.3365 46.0688 91.1793 46.0217 92.3728C45.9851 93.2732 46.3829 94.4353 47.5293 94.4824C48.6704 94.5296 49.2095 93.4983 49.2566 92.488H49.2514Z" fill="#5D624C"/>
<path d="M44.0849 89.4988L43.2579 94.006L43.9907 94.1421L43.8599 94.8645L43.127 94.7284L43.0747 95.0111C42.8182 96.393 41.8446 97.1416 40.3737 96.8694C39.8869 96.7804 39.3425 96.5239 39.1069 96.2779L39.51 95.6026C39.7089 95.8067 40.091 96.0214 40.5569 96.1104C41.5619 96.2936 41.9807 95.6445 42.1377 94.8121L42.1848 94.5504L39.1488 93.9903L40.112 88.7607L41.0542 88.9335L40.2271 93.4406L42.3261 93.828L43.1532 89.3209L44.0954 89.4936L44.0849 89.4988Z" fill="#5D624C"/>
<path d="M37.5208 90.6191C37.9082 89.368 37.28 88.5985 36.3588 88.2949C35.6992 88.0802 35.2648 88.0645 34.8722 88.096L34.9298 87.3893C35.3014 87.3474 35.9086 87.3631 36.7147 87.6248C38.2694 88.1326 38.8661 89.4622 38.3688 90.9855C37.8715 92.5089 36.5786 93.4197 35.1025 92.9381C33.4536 92.3989 33.4903 90.8023 33.7939 89.8705C33.8567 89.6821 33.9247 89.5408 33.9666 89.4518L37.5208 90.6139V90.6191ZM34.6104 90.394C34.4063 90.9751 34.3644 91.9645 35.3956 92.3047C36.3274 92.6083 37.0131 91.8859 37.2957 91.2735L34.6104 90.394Z" fill="#5D624C"/>
<path d="M27.2508 91.7603L28.8002 89.0749L25.6961 87.2846L24.1467 89.97L23.3092 89.4884L27.01 83.0706L27.8475 83.5522L26.1149 86.5622L29.2189 88.3525L30.9516 85.3425L31.7786 85.8189L28.0778 92.2367L27.2508 91.7603Z" fill="#5D624C"/>
<path d="M23.9582 83.8663C24.7591 82.8298 24.4398 81.8875 23.6808 81.2855C23.1417 80.8563 22.7386 80.6888 22.3565 80.5841L22.6601 79.9402C23.0213 80.0344 23.5866 80.2595 24.2514 80.7882C25.5338 81.809 25.6228 83.2643 24.623 84.5154C23.6232 85.7717 22.0948 86.1696 20.8856 85.2011C19.5299 84.1175 20.1213 82.6361 20.7286 81.8718C20.8542 81.7148 20.9641 81.6101 21.0374 81.542L23.9582 83.8715V83.8663ZM21.3096 82.6413C20.917 83.1177 20.5296 84.0285 21.3776 84.7038C22.1419 85.3163 23.037 84.8766 23.5185 84.4002L21.3096 82.6413Z" fill="#5D624C"/>
<path d="M19.7026 80.2491C20.6291 79.3225 20.4354 78.3488 19.7654 77.6526C19.2838 77.1553 18.907 76.9354 18.5458 76.7836L18.9279 76.1816C19.2734 76.3177 19.8073 76.6161 20.3935 77.2234C21.5294 78.4012 21.4352 79.8512 20.2836 80.9662C19.132 82.0812 17.5617 82.2802 16.4886 81.1651C15.2847 79.914 16.0594 78.5216 16.766 77.8411C16.9074 77.705 17.033 77.6107 17.1115 77.5531L19.7078 80.2438L19.7026 80.2491ZM17.2372 78.6891C16.787 79.1079 16.2845 79.9611 17.0382 80.7464C17.7187 81.4478 18.6662 81.1337 19.2001 80.7202L17.2372 78.6891Z" fill="#5D624C"/>
<path d="M17.5617 75.7314C17.5355 75.3912 17.3889 74.8677 17.0958 74.4856C16.6666 73.9254 16.1902 73.8783 15.8395 74.1453C15.4731 74.428 15.4365 74.7996 15.6616 75.5273C15.9704 76.4957 15.8238 77.171 15.3161 77.5584C14.6356 78.0766 13.6567 77.9562 12.9606 77.0454C12.636 76.6161 12.4685 76.1502 12.4266 75.8047L13.1333 75.5692C13.1542 75.8152 13.2485 76.2287 13.5468 76.6213C13.8923 77.0768 14.3477 77.1291 14.6618 76.8883C15.0125 76.6214 14.9758 76.2497 14.7665 75.5378C14.4838 74.5903 14.5675 73.9359 15.1957 73.4543C15.939 72.889 16.9021 73.0617 17.6716 74.0668C18.0275 74.5274 18.2369 75.0457 18.2893 75.4749L17.5564 75.7314H17.5617Z" fill="#5D624C"/>
<path d="M13.6778 68.5493C13.9238 68.6959 14.3635 69.0885 14.7299 69.701C15.5569 71.0777 15.1644 72.533 13.772 73.3705C12.3691 74.2133 10.7726 73.8678 9.87752 72.3812C9.58439 71.8891 9.44306 71.3866 9.42212 71.0882L10.1759 70.8893C10.1811 71.1562 10.2649 71.5279 10.5371 71.9781C11.1652 73.025 12.2802 73.1245 13.2328 72.5487C14.285 71.9153 14.531 70.8421 13.9866 69.9418C13.7039 69.4706 13.3951 69.2351 13.1491 69.0623L13.683 68.5493H13.6778Z" fill="#5D624C"/>
<path d="M6.27615 70.7794L5.88879 69.8947L8.93527 68.5703L8.9248 68.5493C8.61073 68.5179 8.29143 68.3923 8.02447 68.1881C7.75751 67.9944 7.52196 67.7222 7.37539 67.3925C7.08749 66.7381 7.03515 65.5132 8.72066 64.7803L11.6258 63.5135L12.0132 64.3982L9.2127 65.6179C8.42752 65.9581 7.88837 66.5444 8.25479 67.382C8.50604 67.9578 9.10801 68.2353 9.66286 68.1829C9.8042 68.1829 9.94029 68.1358 10.113 68.0573L13.0548 66.7747L13.4422 67.6594L6.28662 70.7794H6.27615Z" fill="#5D624C"/>
<path d="M8.66309 62.3984C9.91413 62.0268 10.2125 61.0741 9.95077 60.1475C9.76233 59.4827 9.53725 59.111 9.29123 58.8022L9.91413 58.4567C10.1549 58.7446 10.4795 59.2576 10.7098 60.0742C11.1495 61.6499 10.3748 62.8853 8.83059 63.3145C7.28642 63.7438 5.81552 63.1732 5.39676 61.6813C4.93089 60.0114 6.27616 59.1529 7.21837 58.8912C7.40681 58.8388 7.56384 58.8179 7.6633 58.8022L8.66832 62.3984H8.66309ZM7.23407 59.8543C6.63734 60.0114 5.78935 60.5192 6.08248 61.5661C6.34421 62.5084 7.32829 62.6759 7.99307 62.5712L7.23407 59.8491V59.8543Z" fill="#5D624C"/>
<path d="M8.36478 55.164C8.58986 54.7139 8.75213 54.07 8.69455 53.4156C8.6108 52.442 8.04548 51.9185 7.30218 51.9813C6.61122 52.0441 6.25004 52.4681 5.95691 53.4994C5.63761 54.74 5.07752 55.541 4.03585 55.6299C2.88426 55.7294 1.94729 54.8552 1.82166 53.4156C1.75361 52.6618 1.88447 52.0965 2.04151 51.751L2.84239 51.9447C2.73246 52.1959 2.55449 52.7089 2.61207 53.379C2.70106 54.3841 3.33443 54.7191 3.84218 54.672C4.53313 54.6092 4.8315 54.1328 5.1351 53.0806C5.50675 51.7876 6.05637 51.1019 7.13991 51.0076C8.28103 50.9082 9.33839 51.6672 9.4902 53.4052C9.55301 54.1171 9.41168 54.9128 9.18659 55.3316L8.36478 55.1588V55.164Z" fill="#5D624C"/>
<path d="M6.66347 44.7992C8.63164 44.8934 9.42205 46.2963 9.35924 47.5789C9.29119 49.0184 8.18148 50.0758 6.5012 49.9973C4.72147 49.9136 3.73215 48.6991 3.80544 47.2281C3.87872 45.6996 5.03554 44.7207 6.66347 44.7992ZM6.51167 49.0184C7.67373 49.076 8.58453 48.4478 8.63164 47.5003C8.67352 46.579 7.84123 45.8462 6.64253 45.7886C5.7422 45.7467 4.58014 46.1393 4.52256 47.2805C4.47022 48.4217 5.49618 48.9661 6.50644 49.0184H6.51167Z" fill="#5D624C"/>
<path d="M9.53201 43.8883L5.03034 43.0351L4.88901 43.7679L4.16665 43.6318L4.30798 42.899L4.02532 42.8466C2.64342 42.5849 1.90012 41.606 2.17755 40.135C2.27177 39.6482 2.52826 39.1037 2.77428 38.8734L3.44429 39.2817C3.24015 39.4754 3.0203 39.8628 2.93131 40.3287C2.74287 41.3338 3.38671 41.7578 4.219 41.9148L4.48072 41.9619L5.05652 38.9258L10.2805 39.9151L10.1026 40.8522L5.6009 39.9989L5.20308 42.0928L9.70475 42.9461L9.52678 43.8831L9.53201 43.8883Z" fill="#5D624C"/>
<path d="M8.44842 37.303C9.69423 37.6956 10.4742 37.0726 10.7778 36.1566C10.9976 35.497 11.0133 35.0625 10.9819 34.6699L11.6886 34.7327C11.7252 35.1044 11.7095 35.7116 11.4425 36.5178C10.9243 38.0725 9.59477 38.6588 8.07153 38.151C6.5483 37.6432 5.64796 36.345 6.14 34.874C6.68963 33.2251 8.28615 33.2722 9.21265 33.581C9.40109 33.6439 9.53719 33.7119 9.63141 33.7538L8.44842 37.303ZM8.68397 34.3924C8.10294 34.1883 7.11362 34.1359 6.76814 35.1672C6.45931 36.0937 7.17643 36.79 7.78887 37.0726L8.68397 34.3924Z" fill="#5D624C"/>
<path d="M7.35975 27.0271L10.0398 28.5923L11.8457 25.4986L9.16565 23.9334L9.65246 23.0958L16.0542 26.8335L15.5674 27.671L12.5681 25.9174L10.7622 29.0111L13.7615 30.7648L13.28 31.5919L6.87817 27.8542L7.35975 27.0271Z" fill="#5D624C"/>
<path d="M15.269 23.7816C16.3002 24.5825 17.2477 24.2736 17.8496 23.5198C18.2841 22.9806 18.4516 22.5776 18.5615 22.2007L19.2054 22.5043C19.1111 22.8655 18.8808 23.4308 18.3521 24.0904C17.3262 25.3677 15.871 25.4515 14.6252 24.4464C13.3741 23.4413 12.9816 21.9127 13.9552 20.7035C15.0439 19.3529 16.5253 19.9497 17.2843 20.5622C17.4361 20.6878 17.546 20.7977 17.6141 20.871L15.269 23.7816ZM16.5096 21.138C16.0385 20.7454 15.1277 20.3475 14.442 21.1956C13.8295 21.9599 14.264 22.855 14.7351 23.3366L16.5044 21.138H16.5096Z" fill="#5D624C"/>
<path d="M18.9069 19.5467C19.8282 20.4785 20.8018 20.29 21.5033 19.6199C22.0058 19.1436 22.2204 18.7667 22.3774 18.4055L22.9741 18.7929C22.8328 19.1384 22.5344 19.6671 21.922 20.2534C20.739 21.3841 19.2838 21.2846 18.1794 20.1225C17.0696 18.9604 16.8812 17.3952 18.0014 16.322C19.2577 15.1233 20.6448 15.9085 21.3253 16.6152C21.4614 16.7565 21.5504 16.8822 21.6132 16.9659L18.9122 19.5467H18.9069ZM20.4825 17.0863C20.0638 16.6361 19.2158 16.1231 18.4254 16.8769C17.7187 17.5522 18.0328 18.4997 18.4411 19.0389L20.4825 17.0863Z" fill="#5D624C"/>
<path d="M23.4401 17.4266C23.7804 17.4056 24.3038 17.2591 24.6912 16.9659C25.2513 16.5419 25.3036 16.0603 25.0366 15.7096C24.7592 15.3431 24.3876 15.3065 23.66 15.5264C22.6916 15.83 22.0163 15.6834 21.629 15.1704C21.1108 14.4846 21.2416 13.5057 22.1524 12.82C22.5817 12.4954 23.0528 12.3332 23.393 12.2965L23.6233 13.0032C23.3773 13.0241 22.9638 13.1131 22.5712 13.4115C22.1158 13.757 22.0582 14.2124 22.299 14.5265C22.566 14.8773 22.9376 14.8406 23.6495 14.6365C24.5969 14.359 25.2513 14.4428 25.7276 15.0762C26.2929 15.8195 26.1097 16.7827 25.0995 17.547C24.6336 17.8977 24.1206 18.1071 23.6861 18.1595L23.4349 17.4266H23.4401Z" fill="#5D624C"/>
<path d="M30.6427 13.579C30.4909 13.8198 30.0983 14.2595 29.4859 14.626C28.104 15.4478 26.654 15.0447 25.8217 13.6471C24.9842 12.2389 25.3402 10.6475 26.832 9.75762C27.324 9.46448 27.8318 9.32837 28.1249 9.30743L28.3186 10.0612C28.0516 10.0612 27.68 10.145 27.2246 10.4172C26.1777 11.0401 26.0678 12.1552 26.6383 13.1079C27.2665 14.1653 28.3343 14.4113 29.2451 13.8722C29.7162 13.5895 29.957 13.2806 30.1297 13.0398L30.6427 13.579Z" fill="#5D624C"/>
<path d="M28.4547 6.17181L29.3446 5.78967L30.6532 8.83631L30.6741 8.82584C30.7055 8.51175 30.8364 8.19767 31.0406 7.92546C31.2395 7.66372 31.5064 7.42816 31.8414 7.28158C32.4957 6.9989 33.7206 6.95179 34.4482 8.63739L35.6993 11.5427L34.8094 11.9248L33.6055 9.11899C33.2652 8.33377 32.6894 7.78936 31.8519 8.15055C31.2761 8.39659 30.9934 8.99859 31.0406 9.54824C31.0406 9.68958 31.0877 9.82568 31.1609 9.99843L32.4277 12.9456L31.5378 13.3277L28.4599 6.16134L28.4547 6.17181Z" fill="#5D624C"/>
<path d="M36.8037 8.60075C37.1701 9.8571 38.1176 10.1555 39.0493 9.89897C39.7193 9.71576 40.0858 9.49066 40.3946 9.24463L40.7348 9.86757C40.4469 10.1084 39.934 10.4277 39.1174 10.6528C37.5366 11.0873 36.3117 10.3073 35.8877 8.75779C35.4637 7.2083 36.0395 5.74257 37.5366 5.32902C39.2116 4.86836 40.0596 6.21893 40.3213 7.16642C40.3737 7.35488 40.3946 7.51192 40.4103 7.61138L36.809 8.60075H36.8037ZM39.3529 7.18213C39.2011 6.58536 38.6934 5.7321 37.6465 6.02001C36.7043 6.27651 36.5263 7.26065 36.631 7.9307L39.3529 7.18213Z" fill="#5D624C"/>
</svg>
