<svg width="143" height="82" viewBox="0 0 143 82" fill="none" xmlns="http://www.w3.org/2000/svg">
<path d="M25.24 0.689998C29.5667 0.689998 32.9033 1.16667 35.25 2.12C37.5967 3 39.6133 3.95333 41.3 4.98C42.18 5.49333 42.8767 5.89667 43.39 6.19C43.9767 6.41 44.5267 6.52 45.04 6.52C45.7733 6.52 46.2867 6.11666 46.58 5.31C46.9467 4.50333 47.24 3.29333 47.46 1.68H49.99C49.9167 3.07333 49.8067 4.76 49.66 6.74C49.5867 8.64666 49.5133 11.1767 49.44 14.33C49.44 17.4833 49.44 21.6267 49.44 26.76H46.91C46.6167 22.9467 45.7367 19.2433 44.27 15.65C42.8033 12.0567 40.7133 9.12333 38 6.85C35.36 4.50333 32.0967 3.33 28.21 3.33C24.69 3.33 21.7933 4.32 19.52 6.3C17.2467 8.28 16.11 11.03 16.11 14.55C16.11 17.4833 16.8433 20.0133 18.31 22.14C19.7767 24.1933 21.9033 26.21 24.69 28.19C27.55 30.17 30.9967 32.5533 35.03 35.34C38.55 37.6133 41.7033 39.8867 44.49 42.16C47.2767 44.4333 49.5133 47 51.2 49.86C52.8867 52.72 53.73 56.13 53.73 60.09C53.73 64.93 52.4467 68.9267 49.88 72.08C47.3867 75.2333 44.0867 77.6167 39.98 79.23C35.8733 80.77 31.3633 81.54 26.45 81.54C21.9033 81.54 18.2733 81.1 15.56 80.22C12.8467 79.34 10.5733 78.4233 8.74 77.47C7.12667 76.4433 5.88 75.93 5 75.93C4.26667 75.93 3.71667 76.3333 3.35 77.14C3.05667 77.9467 2.8 79.1567 2.58 80.77H0.0500004C0.196667 79.01 0.27 76.9567 0.27 74.61C0.343334 72.2633 0.38 69.22 0.38 65.48C0.453334 61.6667 0.49 56.8633 0.49 51.07H3.02C3.31333 55.91 4.12 60.4567 5.44 64.71C6.83333 68.89 8.92333 72.2633 11.71 74.83C14.57 77.3967 18.3467 78.68 23.04 78.68C25.6067 78.68 27.88 78.24 29.86 77.36C31.9133 76.4067 33.5633 75.0133 34.81 73.18C36.0567 71.3467 36.68 69.0733 36.68 66.36C36.68 63.28 35.9467 60.6033 34.48 58.33C33.0867 56.0567 31.1433 53.93 28.65 51.95C26.23 49.97 23.4067 47.9533 20.18 45.9C16.7333 43.6267 13.5067 41.3533 10.5 39.08C7.49333 36.8067 5.07333 34.2033 3.24 31.27C1.48 28.3367 0.6 24.8533 0.6 20.82C0.6 16.2 1.73667 12.4233 4.01 9.49C6.35667 6.48333 9.4 4.28333 13.14 2.89C16.9533 1.42333 20.9867 0.689998 25.24 0.689998ZM108.618 80V77.8C110.965 77.6533 112.725 77.36 113.898 76.92C115.072 76.48 115.842 75.6 116.208 74.28C116.648 72.96 116.868 70.98 116.868 68.34V13.78C116.868 11.0667 116.648 9.08666 116.208 7.84C115.842 6.52 115.035 5.64 113.788 5.2C112.615 4.68666 110.892 4.39333 108.618 4.32V2.12C110.598 2.19333 113.165 2.26666 116.318 2.34C119.545 2.41333 122.735 2.45 125.888 2.45C129.262 2.45 132.415 2.41333 135.348 2.34C138.355 2.26666 140.775 2.19333 142.608 2.12V4.32C140.262 4.39333 138.465 4.68666 137.218 5.2C136.045 5.64 135.275 6.52 134.908 7.84C134.542 9.08666 134.358 11.0667 134.358 13.78V68.34C134.358 70.98 134.542 72.96 134.908 74.28C135.348 75.6 136.155 76.48 137.328 76.92C138.502 77.36 140.262 77.6533 142.608 77.8V80C140.775 79.8533 138.355 79.78 135.348 79.78C132.415 79.7067 129.262 79.67 125.888 79.67C122.735 79.67 119.545 79.7067 116.318 79.78C113.165 79.78 110.598 79.8533 108.618 80ZM61.9783 80V77.8C64.3249 77.6533 66.0849 77.36 67.2583 76.92C68.4316 76.48 69.2016 75.6 69.5683 74.28C70.0083 72.96 70.2283 70.98 70.2283 68.34V13.78C70.2283 11.0667 70.0083 9.08666 69.5683 7.84C69.2016 6.52 68.3949 5.64 67.1483 5.2C65.9749 4.68666 64.2516 4.39333 61.9783 4.32V2.12C63.8849 2.19333 66.3416 2.26666 69.3483 2.34C72.4283 2.41333 75.7649 2.45 79.3583 2.45C82.4383 2.45 85.4816 2.41333 88.4883 2.34C91.4949 2.26666 93.9883 2.19333 95.9683 2.12V4.32C93.6216 4.39333 91.8249 4.68666 90.5783 5.2C89.4049 5.64 88.6349 6.52 88.2683 7.84C87.9016 9.08666 87.7183 11.0667 87.7183 13.78V68.34C87.7183 70.98 87.9016 72.96 88.2683 74.28C88.7083 75.6 89.5149 76.48 90.6883 76.92C91.8616 77.36 93.6216 77.6533 95.9683 77.8V80C93.9883 79.8533 91.4949 79.78 88.4883 79.78C85.4816 79.7067 82.4383 79.67 79.3583 79.67C75.7649 79.67 72.4283 79.7067 69.3483 79.78C66.3416 79.78 63.8849 79.8533 61.9783 80ZM80.5683 41.94V39.74H124.018V41.94H80.5683Z" fill="#5D624C"/>
</svg>
